HIERARCHY
ROOT Hips
{
	OFFSET 0.000000 0.000000 0.000000
	CHANNELS 6 Xposition Yposition Zposition Zrotation Yrotation Xrotation 
	JOINT LHipJoint
	{
		OFFSET 0.000000 0.000000 0.000000
		CHANNELS 3 Zrotation Yrotation Xrotation
		JOINT LeftUpLeg
		{
			OFFSET 1.363060 -1.794630 0.839290
			CHANNELS 3 Zrotation Yrotation Xrotation
			JOINT LeftLeg
			{
				OFFSET 2.448110 -6.726130 0.000000
				CHANNELS 3 Zrotation Yrotation Xrotation
				JOINT LeftFoot
				{
					OFFSET 2.562200 -7.039590 0.000000
					CHANNELS 3 Zrotation Yrotation Xrotation
					JOINT LeftToeBase
					{
						OFFSET 0.157640 -0.433110 2.322550
						CHANNELS 3 Zrotation Yrotation Xrotation
						End Site
						{
							OFFSET 0.000000 0.000000 0.000000
						}
					}
				}
			}
		}
	}
	JOINT RHipJoint
	{
		OFFSET 0.000000 0.000000 0.000000
		CHANNELS 3 Zrotation Yrotation Xrotation
		JOINT RightUpLeg
		{
			OFFSET -1.305520 -1.794630 0.839290
			CHANNELS 3 Zrotation Yrotation Xrotation
			JOINT RightLeg
			{
				OFFSET -2.542530 -6.985550 0.000000
				CHANNELS 3 Zrotation Yrotation Xrotation
				JOINT RightFoot
				{
					OFFSET -2.568260 -7.056230 0.000000
					CHANNELS 3 Zrotation Yrotation Xrotation
					JOINT RightToeBase
					{
						OFFSET -0.164730 -0.452590 2.363150
						CHANNELS 3 Zrotation Yrotation Xrotation
						End Site
						{
							OFFSET 0.000000 0.000000 0.000000
						}
					}
				}
			}
		}
	}
}
MOTION
Frames: 33
Frame Time: 0.008333
3.746797 17.819702 3.588916 -153.196057 -81.234760 176.497949 -10.767332 0.846112 -2.933137 -11.169759 9.274949 -22.658789 -2.430734 0.613567 17.491584 0.093329 -0.722036 2.607775 0.035200 -0.000000 -48.780300 9.575826 0.750451 -0.471202 2.571184 2.829019 -35.897367 1.249749 -2.078485 28.672138 -0.303308 -0.790135 9.008665 -0.558700 0.000000 -47.124000
3.636110 17.822087 3.590856 -153.689334 -81.193567 176.964566 -10.793167 0.878267 -2.987671 -11.102789 9.266939 -22.165023 -2.404496 0.635991 17.530975 0.083861 -0.823378 2.910257 0.014000 -0.000000 -49.615200 9.507689 0.774187 -0.351825 2.597197 3.243433 -36.266129 1.324151 -2.002421 27.692642 -0.249371 -0.544955 8.968907 -0.503600 0.000000 -47.481500
3.524545 17.823684 3.591612 -154.256711 -81.171119 177.508016 -10.817818 0.911602 -3.044208 -11.055813 9.251601 -21.670929 -2.378196 0.658688 17.569890 0.075995 -0.912253 3.233040 -0.006400 -0.000001 -50.388100 9.439245 0.796725 -0.239011 2.630513 3.624797 -36.627570 1.404799 -1.922926 26.682323 -0.189444 -0.264510 8.924283 -0.437700 -0.000000 -47.734200
3.411919 17.824487 3.591121 -154.913408 -81.168204 178.144150 -10.841323 0.946100 -3.102966 -11.032049 9.234693 -21.176390 -2.352887 0.680792 17.604359 0.069553 -0.988984 3.567732 -0.025600 0.000000 -51.118100 9.370869 0.817848 -0.131079 2.668097 3.974792 -36.985654 1.489941 -1.840178 25.645376 -0.124717 0.044448 8.889231 -0.363000 0.000000 -47.838500
3.298053 17.824531 3.589449 -155.653486 -81.183608 178.869581 -10.864018 0.981818 -3.163060 -11.030880 9.223318 -20.685551 -2.329567 0.701643 17.633912 0.063830 -1.059119 3.905565 -0.044400 0.000000 -51.831800 9.302794 0.836535 -0.024895 2.710524 4.297976 -37.347486 1.577679 -1.754525 24.589511 -0.056816 0.371700 8.877311 -0.282400 0.000000 -47.781500
3.182675 17.823802 3.586701 -156.469119 -81.214855 179.679715 -10.886061 1.018445 -3.224095 -11.050224 9.222748 -20.200552 -2.309063 0.720512 17.654975 0.058063 -1.128799 4.239883 -0.063700 -0.000001 -52.562300 9.235210 0.852326 0.081794 2.758101 4.599663 -37.721748 1.666165 -1.666761 23.526021 0.012568 0.706848 8.896624 -0.198600 0.000001 -47.579500
3.065658 17.822336 3.583006 -157.337926 -81.257765 -179.445528 -10.907823 1.055783 -3.285109 -11.084815 9.238068 -19.724021 -2.291794 0.736978 17.665699 0.051355 -1.206293 4.567207 -0.084701 0.000000 -53.340400 9.168088 0.864339 0.191487 2.814009 4.886281 -38.116072 1.753970 -1.577662 22.467315 0.081543 1.037730 8.948563 -0.114899 0.000000 -47.275400
2.946949 17.820185 3.578558 -158.242485 -81.306978 -178.523396 -10.929366 1.093477 -3.345904 -11.129264 9.271875 -19.255104 -2.277867 0.750801 17.662072 0.043020 -1.298457 4.887852 -0.109000 0.000000 -54.192800 9.101326 0.872475 0.304929 2.881788 5.162787 -38.535375 1.840278 -1.488019 21.425570 0.148402 1.353597 9.025377 -0.034200 -0.000000 -46.926500
2.826222 17.817324 3.573642 -159.116203 -81.358728 -177.614353 -10.951474 1.131679 -3.404080 -11.172482 9.327499 -18.807024 -2.267306 0.762778 17.653385 0.031935 -1.419592 5.200370 -0.139400 -0.000000 -55.120400 9.034378 0.875990 0.424075 2.973572 5.431438 -38.987308 1.926098 -1.397542 20.407513 0.211907 1.644031 9.114736 0.039800 0.000001 -46.604900
2.703823 17.813901 3.568188 -160.013279 -81.404124 -176.675735 -10.973464 1.169847 -3.463601 -11.217031 9.401026 -18.347101 -2.258730 0.771706 17.611179 0.019066 -1.558854 5.527472 -0.174700 0.000000 -56.159300 8.966861 0.875712 0.546192 3.079278 5.704259 -39.455278 2.009595 -1.306799 19.419948 0.269703 1.898136 9.192257 0.103500 -0.000000 -46.348300
2.579494 17.809795 3.562548 -160.829747 -81.444626 -175.804941 -10.996408 1.208547 -3.520197 -11.248708 9.493803 -17.905029 -2.252141 0.780049 17.564898 0.003336 -1.734527 5.860149 -0.219000 0.000000 -57.260700 8.898133 0.871600 0.671585 3.221122 5.970422 -39.945682 2.094871 -1.214022 18.458279 0.322491 2.115342 9.242521 0.155300 -0.000000 -46.223400
2.453114 17.804942 3.556661 -161.566585 -81.478623 -175.003394 -11.020592 1.248155 -3.574369 -11.265698 9.601691 -17.471690 -2.246363 0.788176 17.511350 -0.014505 -1.942443 6.210076 -0.272401 0.000000 -58.408700 8.827656 0.863869 0.798346 3.400407 6.230807 -40.443981 2.183009 -1.117842 17.515610 0.369767 2.293306 9.246567 0.193300 0.000000 -46.248400
2.324890 17.799289 3.550457 -162.237602 -81.508512 -174.264874 -11.045460 1.288794 -3.626411 -11.268940 9.715782 -17.038552 -2.240135 0.796683 17.450057 -0.033209 -2.172941 6.584244 -0.333900 0.000000 -59.574901 8.755632 0.854065 0.921972 3.618875 6.476359 -40.934071 2.275713 -1.017004 16.581530 0.412438 2.439567 9.192610 0.219300 0.000000 -46.418100
2.194786 17.792680 3.543842 -162.854633 -81.539156 -173.581435 -11.070638 1.330881 -3.675686 -11.260207 9.827851 -16.602149 -2.232383 0.806181 17.386098 -0.051556 -2.415913 6.984617 -0.402201 0.000000 -60.727500 8.682497 0.843115 1.039275 3.877900 6.697629 -41.401944 2.374441 -0.910114 15.643827 0.451745 2.563692 9.077984 0.235800 0.000000 -46.701300
2.062625 17.784902 3.536622 -163.444192 -81.577464 -172.928866 -11.095272 1.374967 -3.721251 -11.244243 9.927032 -16.156452 -2.222056 0.816822 17.321659 -0.068021 -2.655533 7.410808 -0.474099 0.000000 -61.843100 8.609397 0.832060 1.146760 4.175449 6.883770 -41.833930 2.479816 -0.796394 14.692128 0.489425 2.679185 8.909831 0.247301 -0.000000 -47.039800
1.928351 17.775655 3.528615 -164.018102 -81.633354 -172.296114 -11.118834 1.421511 -3.760037 -11.224515 10.004354 -15.711721 -2.208747 0.829171 17.272570 -0.081655 -2.880789 7.849488 -0.547000 -0.000001 -62.892701 8.537551 0.821511 1.243534 4.512059 7.022592 -42.229386 2.592449 -0.675632 13.721152 0.527576 2.799533 8.705477 0.258701 -0.000000 -47.365400
1.792089 17.764840 3.519606 -164.656068 -81.706979 -171.613544 -11.138676 1.470183 -3.796061 -11.211861 10.050315 -15.232422 -2.191117 0.841778 17.212875 -0.090313 -3.061347 8.311896 -0.613800 0.000000 -63.922300 8.469052 0.813054 1.325152 4.867625 7.120119 -42.565578 2.707664 -0.549270 12.728977 0.565952 2.929069 8.485643 0.272700 -0.000000 -47.595100
1.653376 17.752080 3.509552 -165.346305 -81.809970 -170.882518 -11.154634 1.521786 -3.822401 -11.208398 10.055462 -14.748751 -2.169779 0.855108 17.169631 -0.093981 -3.191938 8.768606 -0.671099 0.000000 -64.906300 8.405433 0.806362 1.394441 5.245912 7.163425 -42.866576 2.825775 -0.419280 11.728503 0.606957 3.079255 8.277214 0.293599 0.000000 -47.680900
1.512239 17.737173 3.498387 -166.110269 -81.942952 -170.081018 -11.165683 1.575748 -3.839060 -11.217414 10.016590 -14.258998 -2.144709 0.868529 17.140467 -0.092203 -3.260381 9.211646 -0.714300 -0.000000 -65.881201 8.347581 0.801178 1.454065 5.633433 7.165771 -43.139619 2.942350 -0.288279 10.733209 0.649071 3.240372 8.103277 0.319400 -0.000001 -47.592300
1.368394 17.719986 3.486249 -166.961348 -82.104021 -169.189418 -11.170868 1.631926 -3.845011 -11.242399 9.929330 -13.763568 -2.116182 0.881186 17.121194 -0.084763 -3.256577 9.632065 -0.738700 0.000000 -66.883400 8.296178 0.797123 1.506862 6.019876 7.138763 -43.400365 3.053827 -0.159781 9.766948 0.690746 3.402604 7.974631 0.347900 -0.000000 -47.329400
1.221747 17.700386 3.473327 -167.878001 -82.289695 -168.221627 -11.170715 1.689539 -3.839273 -11.280292 9.796740 -13.276856 -2.084927 0.892971 17.118786 -0.072341 -3.184920 10.017692 -0.743300 0.000000 -67.937600 8.250152 0.792841 1.559731 6.396499 7.104716 -43.671012 3.156903 -0.036203 8.852167 0.728358 3.541524 7.892175 0.371800 0.000000 -46.925299
1.072260 17.678395 3.459881 -168.845659 -82.492099 -167.186905 -11.165330 1.747925 -3.822165 -11.329675 9.619873 -12.801461 -2.051378 0.903440 17.128475 -0.055302 -3.047327 10.365655 -0.727300 0.000000 -69.072200 8.208061 0.787790 1.617012 6.755503 7.084160 -43.968803 3.249148 0.080084 8.014722 0.758249 3.635649 7.836413 0.384100 0.000000 -46.425500
0.919924 17.654017 3.446274 -169.814521 -82.703585 -166.127441 -11.156555 1.806170 -3.794114 -11.383227 9.406092 -12.351213 -2.016238 0.912891 17.156873 -0.034769 -2.859618 10.670788 -0.694000 0.000000 -70.290300 8.166732 0.780700 1.685633 7.092155 7.103058 -44.310922 3.329281 0.188915 7.272337 0.775596 3.655973 7.775469 0.374400 -0.000001 -45.889100
0.764613 17.627277 3.432805 -170.743383 -82.915502 -165.079031 -11.145932 1.863847 -3.756660 -11.436100 9.160803 -11.927730 -1.979831 0.921421 17.201107 -0.011474 -2.634182 10.937420 -0.646600 -0.000000 -71.588099 8.123095 0.771367 1.768604 7.403964 7.178312 -44.704127 3.397470 0.291034 6.638048 0.776711 3.584846 7.662960 0.335500 -0.000000 -45.365900
0.606588 17.598251 3.419763 -171.585028 -83.121503 -164.090556 -11.135444 1.920196 -3.712049 -11.481451 8.891499 -11.533520 -1.942430 0.929726 17.263596 0.013572 -2.388715 11.169576 -0.590299 -0.000000 -72.938900 8.073532 0.760201 1.867521 7.691876 7.322064 -45.146752 3.455010 0.388923 6.113399 0.758398 3.410642 7.448613 0.261900 -0.000000 -44.896500
0.445832 17.566906 3.407297 -172.294385 -83.318970 -163.207412 -11.127240 1.974933 -3.662597 -11.512903 8.605919 -11.167965 -1.904132 0.938516 17.348153 0.039371 -2.140641 11.371997 -0.530700 0.000001 -74.299600 8.014861 0.747679 1.982133 7.958274 7.538238 -45.627027 3.504044 0.486458 5.688118 0.718492 3.132379 7.084772 0.153599 0.000000 -44.502700
0.282575 17.533174 3.395468 -172.850300 -83.508233 -162.459766 -11.122578 2.027975 -3.611142 -11.526711 8.310244 -10.822225 -1.864767 0.948677 17.455082 0.065391 -1.900979 11.553105 -0.471800 0.000000 -75.626900 7.945081 0.735639 2.107922 8.208771 7.817740 -46.122604 3.547547 0.587677 5.343359 0.656911 2.766128 6.534312 0.018000 -0.000001 -44.175200
0.116744 17.496877 3.384225 -173.247409 -83.694239 -161.859638 -11.122311 2.079677 -3.559896 -11.520451 8.009715 -10.486673 -1.824183 0.960957 17.587027 0.091206 -1.677689 11.717922 -0.416501 -0.000000 -76.874000 7.863577 0.725751 2.239428 8.448427 8.144585 -46.604896 3.588474 0.696955 5.050006 0.575076 2.337882 5.779627 -0.131900 0.000001 -43.879400
-0.051494 17.457720 3.373311 -173.510929 -83.884430 -161.394766 -11.126345 2.130532 -3.511079 -11.494124 7.709630 -10.149397 -1.782358 0.976176 17.746599 0.116746 -1.472713 11.869162 -0.365900 -0.000000 -78.007600 7.771490 0.720181 2.369640 8.681444 8.496883 -47.042207 3.629121 0.817401 4.776497 0.476366 1.882130 4.828652 -0.279100 0.000000 -43.555799
-0.222366 17.415303 3.362372 -173.711883 -84.088788 -161.001053 -11.133403 2.182008 -3.464178 -11.454115 7.408288 -9.801514 -1.739648 0.994574 17.935783 0.142368 -1.279144 12.003706 -0.318100 -0.000000 -78.999600 7.672539 0.720795 2.492238 8.908147 8.846897 -47.411032 3.671038 0.949965 4.495196 0.366786 1.439384 3.718935 -0.406200 0.000000 -43.147100
-0.395764 17.369131 3.351345 -173.834898 -84.315396 -160.708273 -11.145264 2.234296 -3.424794 -11.391984 7.130629 -9.430732 -1.696068 1.017256 18.158945 0.168165 -1.099513 12.125635 -0.274200 -0.000001 -79.898400 7.568828 0.727356 2.602291 9.128188 9.186311 -47.675933 3.713157 1.094414 4.177079 0.251114 1.030177 2.514032 -0.504400 0.000000 -42.559900
-0.572113 17.318763 3.339606 -174.034209 -84.572444 -160.360899 -11.159199 2.289999 -3.387945 -11.323165 6.865301 -9.040928 -1.653084 1.043668 18.419047 0.194835 -0.917053 12.219399 -0.228899 0.000000 -80.698100 7.468012 0.740460 2.697925 9.331073 9.490021 -47.845163 3.754182 1.244661 3.823578 0.139140 0.686893 1.304920 -0.567201 -0.000000 -41.805700
-0.751629 17.263728 3.327014 -174.350067 -84.862946 -159.919405 -11.176793 2.350237 -3.354906 -11.245088 6.629709 -8.636988 -1.611718 1.074095 18.721730 0.222479 -0.730256 12.279701 -0.181700 -0.000000 -81.467600 7.374450 0.757545 2.780730 9.506327 9.760643 -47.923007 3.790519 1.393034 3.444717 0.037375 0.410823 0.192470 -0.600900 0.000000 -40.891300
